<svg width="64" height="64" viewBox="0 0 64 64" fill="none" xmlns="http://www.w3.org/2000/svg">
<circle cx="32" cy="32" r="32" fill="#BBD4FA"/>
<path d="M17.4186 34.4617L18.7675 24.2945L7.04858 16.1523L17.7558 19.7804L20.2851 15.8992L29.5169 10.1616L49.8775 21.3835L50.9313 38.5117L41.8681 51.1257L34.7019 52.2226L38.4115 45.4304V38.8913L35.7136 33.7867L32.9736 31.9726L28.7581 36.3179V40.9163L25.4701 43.996L21.2968 44.5023L19.442 45.557L16.4069 44.5867L15.1422 40.0304L17.4186 36.8242V34.4617Z" fill="white"/>
<path d="M36.1351 16.0676C33.9009 15.6036 31.4559 15.7301 31.4559 15.7301C31.4559 15.7301 30.655 19.4426 25.6808 20.4129C25.7229 20.4129 32.2569 22.6489 36.1351 16.0676Z" fill="#94A6C3"/>
<path d="M38.1584 49.7335C40.8563 47.6241 42.8797 44.7132 43.8071 41.4226C43.8493 41.296 44.2287 41.0851 44.4816 40.9163C44.9031 40.6632 45.3247 40.4523 45.409 40.1148C45.5776 39.1444 45.6619 38.1319 45.6619 37.1194C45.6619 36.7398 45.2825 36.3601 44.9031 35.9804C44.6081 35.7273 44.313 35.4319 44.313 35.221C43.8914 31.3819 42.121 27.796 39.2966 25.1804L39.0015 25.4757C41.7416 28.0491 43.5121 31.5507 43.8914 35.2632C43.9336 35.6007 44.2708 35.9382 44.6081 36.2757C44.9031 36.5288 45.2404 36.9085 45.2404 37.0773C45.2404 38.0476 45.1561 39.0179 44.9875 39.9882C44.9453 40.1569 44.5659 40.3257 44.2708 40.4944C43.8493 40.7054 43.4699 40.9163 43.3856 41.2538C42.3739 44.8398 40.0554 47.9616 36.9781 49.9866C37.5261 48.8054 39.2545 44.9663 40.1819 43.0257L40.0132 36.7819L34.6596 31.5929L31.6245 32.0148L28.2943 37.4148C28.2943 37.4148 29.854 39.3976 27.662 41.7179C25.5121 43.996 23.8259 44.5023 23.8259 44.5023L22.2662 43.6585C22.7299 43.0679 23.6573 42.1819 24.3739 41.5913C25.5964 40.5788 26.8189 40.4944 26.8189 39.3976C26.8611 37.1194 24.4161 37.7523 24.4161 37.7523L23.5309 38.596L23.1515 41.7179L21.2967 44.0382L21.0859 43.996L18.0508 43.321C18.0508 43.321 19.9056 42.3507 20.2007 41.2538C20.4957 40.1991 19.6105 36.6976 19.5683 36.4866C19.6105 36.5288 20.4536 37.246 20.833 38.4273C21.5074 36.571 22.3927 34.7991 22.6456 34.6304C22.8985 34.4616 26.313 32.6476 26.313 32.6476L25.1749 35.6429L26.018 35.1788L28.0414 30.2007C28.0414 30.2007 30.0226 29.2304 31.498 29.2304C34.1538 29.1882 38.0741 25.9398 36.3036 20.1179C36.8095 20.3288 45.5776 24.7163 47.0952 33.3226C48.2333 39.946 44.4816 46.1476 38.1584 49.7335Z" fill="#94A6C3"/>
<path d="M28.1259 16.996C29.0954 15.857 28.716 14.1694 28.716 14.1694L25.8917 18.346C25.8495 18.346 26.9034 18.3882 28.1259 16.996Z" fill="#0A192B"/>
<path d="M18.6411 39.8196L18.9783 38.1321C18.9783 38.1321 17.5872 40.5789 17.4608 40.9164C17.3343 41.2961 17.5451 41.9711 18.0931 41.9289C18.6411 41.8867 19.3156 41.0852 19.3156 40.4946C19.3156 39.7352 18.6411 39.8196 18.6411 39.8196Z" fill="#0A192B"/>
<path d="M43.6808 12.9882C43.6808 12.9882 45.7885 13.0725 47.9806 13.3257C43.0485 9.44442 38.3694 8.30536 34.5755 8.30536C29.3483 8.30536 25.8073 10.4569 25.5966 10.5835L27.2406 7.96786C27.2406 7.96786 20.6645 7.33505 18.346 14.296C17.7558 12.8194 17.2078 10.6679 17.2078 10.6679C17.2078 10.6679 13.7933 13.6632 15.3952 18.6413C11.4748 17.2069 5.8683 15.2241 5.65753 15.1819C5.36245 15.1397 5.27814 15.2663 5.27814 15.2663C5.27814 15.2663 5.19383 15.3929 5.44676 15.6038C5.91045 15.9835 14.7629 22.5225 16.702 23.7882C16.2804 25.3069 16.2804 26.0241 16.702 26.7413C17.2921 27.7116 17.3343 28.2178 17.25 28.935C17.1657 29.6522 16.4069 35.8538 16.2383 36.6132C16.0697 37.3725 14.2992 40.0725 14.3835 40.8741C14.4678 41.6757 15.5638 45.0928 16.5334 45.4725C17.25 45.7257 19.0205 46.2741 20.2008 46.2741C20.6223 46.2741 21.0017 46.1897 21.1704 46.021C21.887 45.3882 22.0977 45.2616 22.6036 45.2616C22.6458 45.2616 22.6879 45.2616 22.7301 45.2616C22.9408 45.2616 23.1938 45.3038 23.4888 45.3038C24.1633 45.3038 25.0486 45.1772 25.6809 44.5866C26.6083 43.6585 28.2101 42.3928 28.716 41.8022C29.3483 41.0007 29.6855 39.9038 29.5169 38.8069C29.3905 37.7944 29.9385 36.9085 30.5708 36.0225C31.3717 34.9678 32.8471 33.0694 32.8471 33.0694C35.7558 35.2632 37.5684 38.596 37.5684 42.3085C37.5684 48.8897 31.8354 54.2053 24.7535 54.2053C23.6575 54.2053 22.6036 54.0788 21.5497 53.8257C24.7956 54.9647 27.5357 55.3444 29.7699 55.3444C34.5333 55.3444 37.0626 53.6147 37.0626 53.6147C37.0626 53.6147 36.1773 54.7538 34.7441 56.0616C34.7862 56.0616 34.7862 56.0616 34.7862 56.0616C42.6691 54.9647 46.5052 48.4678 46.5052 48.4678C46.5052 48.4678 46.2101 50.5772 45.8307 52.0116C56.3271 44.1225 54.5567 34.2507 54.5145 33.9132C54.5988 34.0397 55.6527 35.3053 56.2007 35.9803C57.8868 18.5991 43.6808 12.9882 43.6808 12.9882ZM27.5357 40.7475C27.3671 40.9585 26.6504 41.5913 26.1446 42.0553C25.6387 42.5194 25.0907 42.9835 24.6692 43.4053C24.5006 43.5741 24.1633 43.6585 23.6575 43.6585C23.4888 43.6585 23.3202 43.6585 23.1938 43.6585C23.1095 43.6585 23.0251 43.6585 22.9408 43.6585C22.8565 43.6585 22.8144 43.6585 22.7722 43.6585C22.6458 43.6585 22.5193 43.6585 22.3928 43.6585C23.0251 42.8147 24.8799 40.8741 25.5123 40.4522C26.271 39.946 26.6504 39.4397 26.1867 38.5538C25.723 37.6678 24.5006 37.8788 24.5006 37.8788C24.5006 37.8788 25.2172 37.5835 25.8495 37.5835C25.0486 37.3725 24.0369 37.5835 23.5732 38.0475C23.0673 38.5116 23.1516 40.1569 22.9408 41.2116C22.7301 42.3085 22.0134 42.8569 20.9174 43.8694C20.3273 44.4178 19.9057 44.5866 19.5685 44.5866C18.8519 44.46 18.0088 44.2491 17.4186 44.0382C16.9971 43.4897 16.3647 41.6757 16.1961 40.9163C16.3226 40.4944 16.8284 39.6085 17.0814 39.1022C17.5872 38.1319 17.8823 37.5835 17.9666 37.0772C18.1352 36.36 18.6832 31.9303 18.894 30.0741C19.442 30.7913 20.2008 31.9725 20.0322 32.7319C21.2547 31.0022 20.3694 29.3147 19.9479 28.6397C19.5685 27.9647 19.0626 26.6147 19.4842 25.1803C19.9057 23.746 21.4233 19.7803 21.4233 19.7803C21.4233 19.7803 21.9291 20.6663 22.6458 20.4975C23.3624 20.3288 29.1375 11.6382 29.1375 11.6382C29.1375 11.6382 30.6973 15.0553 29.0532 17.5444C27.3671 20.0335 25.723 20.4975 25.723 20.4975C25.723 20.4975 28.0415 20.9194 30.1914 19.3585C31.0766 21.4257 31.9197 23.5772 31.9619 23.8725C31.8354 24.1678 30.1492 28.2178 29.9806 28.471C29.8963 28.5553 29.3062 28.7241 28.8846 28.8085C28.168 29.0194 27.7464 29.146 27.5778 29.2725C27.2827 29.5257 25.9338 33.2382 25.3015 35.0522C24.5427 35.2632 23.7839 35.685 23.2359 36.5288C23.531 36.3178 24.4584 36.1913 25.1329 36.1069C25.723 36.0647 27.5357 37.035 27.9994 38.8491C27.9994 38.8913 27.9994 38.8913 27.9994 38.9335C28.0837 39.6085 27.8729 40.2413 27.5357 40.7475ZM23.5732 41.2538C23.9525 40.7053 23.9104 39.7772 23.9525 39.4819C23.9947 39.1866 24.079 38.6382 24.4162 38.5538C24.7535 38.4694 25.5544 38.596 25.5544 39.1866C25.5544 39.735 24.9643 39.8616 24.5427 40.2413C24.2476 40.5366 23.6575 41.1694 23.5732 41.2538ZM40.3928 33.196C40.8143 31.0444 40.8565 29.1882 40.73 27.6694C42.374 29.8632 43.3857 32.521 43.6808 35.2632C43.723 35.6007 44.0602 35.9382 44.3974 36.2757C44.6925 36.5288 45.0298 36.8663 45.0298 37.0772C45.0298 38.0475 44.9454 39.0178 44.7768 39.9882C44.7347 40.1147 44.3553 40.3257 44.0602 40.4944C43.6387 40.7053 43.2593 40.9163 43.175 41.2538C42.2476 44.5022 40.2663 47.371 37.6106 49.396C41.5309 45.3038 43.4279 38.5538 40.3928 33.196ZM37.737 49.7757C40.4771 47.6663 42.5848 44.7132 43.5122 41.3803C43.5543 41.2538 43.9337 41.0428 44.1867 40.8741C44.6082 40.6632 45.0298 40.41 45.1141 40.0725C45.2827 39.1022 45.367 38.0897 45.367 37.0772C45.367 36.6975 44.9876 36.3178 44.6082 35.9382C44.3974 35.685 44.0602 35.3897 44.0602 35.1788C43.723 32.0991 42.5005 29.1882 40.6035 26.7835C39.7605 21.721 36.3881 20.16 36.3038 20.1178C36.3881 20.2444 38.5801 23.4085 37.0626 27.121C35.5029 30.8757 31.4982 30.285 31.161 30.3272C30.8237 30.3272 29.5169 32.0147 27.8729 35.1366C27.6621 35.0522 26.7769 34.8413 25.7652 35.01C26.524 32.9007 27.6621 29.9053 27.8729 29.6522C27.9572 29.5678 28.5895 29.3991 29.0111 29.2725C29.812 29.0616 30.1914 28.935 30.3179 28.7663C30.4022 28.6397 30.8237 27.6694 31.2453 26.6569C31.6246 26.6569 32.5942 26.5725 32.6785 26.5303C32.7628 26.446 33.5637 24.3788 33.5637 24.1257C33.5637 23.9147 31.9197 19.8225 31.2874 18.2616C31.5825 17.9241 31.8776 17.5022 32.1727 17.0382C40.8143 17.9663 47.559 25.3069 47.559 34.2085C47.559 41.0428 43.5543 46.9913 37.737 49.7757Z" fill="#0A192B"/>
<path d="M26.524 26.9944C27.3249 26.0663 26.9034 24.3366 25.428 24.0413C25.8073 23.1553 26.3554 21.3835 26.3554 21.3835C26.3554 21.3835 22.0556 28.1335 21.6762 28.26C21.2968 28.3866 20.9174 26.91 20.9174 26.91C20.1165 29.9897 22.2664 30.4116 22.5193 29.4413C23.6996 29.146 25.723 27.8803 26.524 26.9944Z" fill="#0A192B"/>
<path d="M22.8567 28.6399L25.0487 24.8853C25.0487 24.8853 26.3133 25.5181 25.681 26.5306C24.8801 27.7118 22.8567 28.6399 22.8567 28.6399Z" fill="#FFD923"/>
<path d="M49.9618 46.0211C49.3295 46.8649 48.6128 47.7508 47.7697 48.5946C53.2077 38.1321 48.0227 28.5555 47.8119 28.1758C48.1913 28.5555 48.5707 28.9774 48.9079 29.357C53.0812 33.9977 53.5871 40.9586 49.9618 46.0211Z" fill="#D82122"/>
<path d="M55.0202 32.5633C53.1233 27.4586 50.4254 23.1133 44.4816 19.1898C38.7486 15.393 32.5941 15.6883 32.2568 15.7305C32.2147 15.7305 32.1725 15.7305 32.1725 15.7305C32.3833 15.6461 32.5941 15.6039 32.8048 15.5617C34.1116 15.1398 35.7978 14.8023 37.484 14.5914C41.9523 13.9586 46.4629 15.4773 49.5401 18.7258C49.5823 18.768 49.5823 18.768 49.6244 18.8102C53.1233 22.5227 54.9359 27.1633 55.0202 32.5633Z" fill="#D82122"/>
<path d="M43.1327 11.6804C36.8517 10.4991 32.8048 11.0897 29.8962 12.1866C29.8119 11.8491 29.5168 11.1741 29.2639 10.6257C28.3786 11.6804 27.4512 12.946 26.8611 13.7476C25.2592 14.8444 24.5847 15.8991 24.5847 15.8991C25.5121 12.7351 28.21 10.3726 31.498 9.78193C32.4254 9.61318 33.4371 9.52881 34.5332 9.52881C37.4418 9.57099 40.3505 10.2882 43.1327 11.6804Z" fill="#D82122"/>
<path d="M19.9056 19.7804C14.9735 19.6116 16.6175 13.8741 16.7019 13.5366C16.7019 13.5788 17.0391 18.0507 19.9056 19.7804Z" fill="#D82122"/>
<path d="M24.7533 9.44458C20.9594 11.7227 21.7182 17.1649 21.7182 17.1649C18.0929 11.6383 24.4583 9.57114 24.7533 9.44458Z" fill="#D82122"/>
<path d="M18.5145 21.2992C18.7674 21.5102 19.0203 21.8898 18.7253 22.4383C18.5566 22.7336 18.3037 22.6914 17.9243 22.5227C17.4185 22.2695 14.3833 20.4977 11.6433 18.6836C14.7627 19.7805 17.9243 20.9617 18.4302 21.2148C18.4302 21.2148 18.4723 21.257 18.5145 21.2992Z" fill="white"/>
</svg>
