<svg width="320" height="320" viewBox="0 0 320 320" fill="none" xmlns="http://www.w3.org/2000/svg">
<circle cx="160" cy="160" r="160" fill="#FE815F"/>
<path opacity="0.8" fill-rule="evenodd" clip-rule="evenodd" d="M248.124 199.948C248.124 233.309 220.674 260.354 186.812 260.354H71V220.083H186.812C198.099 220.083 207.249 211.068 207.249 199.948C207.249 188.827 198.099 179.812 186.812 179.812H145.937V139.541H186.812C198.099 139.541 207.249 130.527 207.249 119.406C207.249 108.286 198.099 99.2707 186.812 99.2707H71V59H186.812C220.674 59 248.124 86.0447 248.124 119.406C248.124 134.877 242.221 148.99 232.512 159.677C242.221 170.364 248.124 184.476 248.124 199.948Z" fill="white"/>
<path opacity="0.12" d="M71 220.083H170.471C149.342 244.536 115.702 260.354 77.8125 260.354C75.5256 260.354 73.2541 260.296 71 260.182V220.083ZM191.308 179.812H152.75V139.541H191.308C192.827 146.047 193.624 152.781 193.624 159.677C193.624 166.573 192.827 173.306 191.308 179.812ZM170.471 99.2707H71V59.1713C73.2541 59.0576 75.5256 59 77.8125 59C115.702 59 149.342 74.8174 170.471 99.2707Z" fill="black"/>
<path d="M71 59C127.436 59 173.187 104.075 173.187 159.677C173.187 215.279 127.436 260.354 71 260.354V220.083C104.862 220.083 132.312 193.038 132.312 159.677C132.312 126.315 104.862 99.2707 71 99.2707V59Z" fill="white"/>
</svg>
