<svg width="120" height="120" viewBox="0 0 120 120" fill="none" xmlns="http://www.w3.org/2000/svg">
<circle cx="60" cy="60" r="60" fill="#5865F2"/>
<path d="M84.1045 35.4861C79.5792 33.4097 74.7265 31.8799 69.6527 31.0037C69.5603 30.9868 69.468 31.029 69.4204 31.1135C68.7963 32.2236 68.105 33.6717 67.6209 34.8099C62.1637 33.9929 56.7345 33.9929 51.3892 34.8099C50.905 33.6464 50.1886 32.2236 49.5617 31.1135C49.5141 31.0318 49.4218 30.9896 49.3294 31.0037C44.2584 31.8771 39.4057 33.4069 34.8776 35.4861C34.8384 35.503 34.8048 35.5312 34.7825 35.5678C25.578 49.3192 23.0564 62.7326 24.2934 75.9797C24.299 76.0445 24.3354 76.1065 24.3858 76.1459C30.4587 80.6057 36.3413 83.3132 42.1147 85.1078C42.2071 85.136 42.305 85.1022 42.3638 85.0261C43.7295 83.1611 44.9469 81.1946 45.9907 79.1266C46.0523 79.0055 45.9935 78.8618 45.8676 78.8139C43.9366 78.0814 42.0979 77.1883 40.3292 76.1741C40.1893 76.0924 40.1781 75.8923 40.3068 75.7965C40.679 75.5176 41.0513 75.2274 41.4067 74.9344C41.471 74.8809 41.5606 74.8696 41.6362 74.9034C53.2558 80.2085 65.8354 80.2085 77.3179 74.9034C77.3935 74.8668 77.4831 74.8781 77.5502 74.9316C77.9057 75.2246 78.2779 75.5176 78.6529 75.7965C78.7816 75.8923 78.7732 76.0924 78.6333 76.1741C76.8646 77.208 75.0259 78.0814 73.0921 78.8111C72.9662 78.859 72.9102 79.0055 72.9718 79.1266C74.038 81.1917 75.2554 83.1582 76.5959 85.0233C76.6519 85.1022 76.7526 85.136 76.845 85.1078C82.6464 83.3132 88.529 80.6057 94.6019 76.1459C94.6551 76.1065 94.6887 76.0473 94.6943 75.9825C96.1747 60.6674 92.2147 47.364 84.1968 35.5706C84.1772 35.5312 84.1437 35.503 84.1045 35.4861ZM47.7259 67.9136C44.2276 67.9136 41.3451 64.7019 41.3451 60.7576C41.3451 56.8133 44.1717 53.6016 47.7259 53.6016C51.308 53.6016 54.1626 56.8415 54.1066 60.7576C54.1066 64.7019 51.28 67.9136 47.7259 67.9136ZM71.3178 67.9136C67.8196 67.9136 64.9371 64.7019 64.9371 60.7576C64.9371 56.8133 67.7636 53.6016 71.3178 53.6016C74.9 53.6016 77.7545 56.8415 77.6986 60.7576C77.6986 64.7019 74.9 67.9136 71.3178 67.9136Z" fill="white"/>
</svg>
