<svg width="42" height="42" viewBox="0 0 42 42" fill="none" xmlns="http://www.w3.org/2000/svg">
<rect width="42" height="42" fill="white"/>
<g clip-path="url(#clip0_103_112)">
<path d="M13.0954 34.7111C13.9022 35.0623 14.7513 35.3072 15.6212 35.4397C17.437 35.7186 19.0911 35.3554 20.4172 33.9871C21.3068 33.0521 21.8706 31.8548 22.0245 30.5734C22.2752 28.8654 21.912 27.2417 21.2349 25.693C20.696 24.4395 20.0494 23.2212 19.4121 22.0075C18.5874 20.433 17.7298 18.8749 17.1816 17.1739C16.6681 15.7125 16.453 14.1629 16.549 12.6169C16.7771 9.70056 18.3601 7.06017 20.8249 5.48486H20.5648C13.4532 5.48745 7.24722 10.3086 5.48629 17.1988C3.72536 24.089 6.85711 31.2966 13.0954 34.7111Z" fill="#EC210D"/>
<path d="M30.1195 8.76508C28.9179 7.88748 27.4957 7.36176 26.0123 7.24683C23.4611 7.05864 21.0784 8.53271 20.108 10.8995C19.4285 12.5138 19.4988 14.1539 19.9932 15.794C20.4336 17.2841 21.1647 18.6477 21.8675 20.0113C22.6009 21.4171 23.3506 22.8229 24.0114 24.2709C24.732 25.7928 25.1309 27.4471 25.1829 29.1302C25.2438 32.0753 24.3675 34.6057 22.2213 36.5152C28.5232 35.8326 33.7818 31.397 35.517 25.3004C37.2522 19.2037 35.1174 12.6638 30.1195 8.76508Z" fill="#EC210D"/>
<path d="M20.5648 31.4919C20.9957 31.4919 21.4261 31.4645 21.8535 31.4099C21.9264 31.1346 21.9835 30.8553 22.0245 30.5734C22.2752 28.8654 21.9121 27.2417 21.2349 25.693C20.6961 24.4395 20.0494 23.2212 19.4121 22.0075C18.5874 20.4331 17.7299 18.875 17.1816 17.174C16.6681 15.7126 16.453 14.163 16.549 12.6169C16.5803 12.2359 16.6351 11.8572 16.713 11.4829C12.0987 13.3326 9.44442 18.1949 10.3842 23.0765C11.3239 27.9581 15.5936 31.4875 20.5648 31.4919Z" fill="#FCAC07"/>
<path d="M20.5649 10.7378C20.4336 10.7378 20.3048 10.7378 20.1759 10.7378C20.1525 10.7893 20.1291 10.8385 20.108 10.8901C19.4285 12.5138 19.4988 14.1538 19.9932 15.7939C20.4336 17.2841 21.1647 18.6477 21.8675 20.0113C22.6009 21.4171 23.3506 22.8228 24.0114 24.2708C24.9352 26.1851 25.3276 28.3125 25.1477 30.4305C29.4634 28.2936 31.7425 23.4689 30.6519 18.7783C29.5613 14.0877 25.3876 10.7633 20.5719 10.7495L20.5649 10.7378Z" fill="#FCAC07"/>
<path d="M20.5648 27.6025C20.996 27.6027 21.4261 27.5595 21.8487 27.4736C21.6959 26.8635 21.4905 26.2677 21.2349 25.693C20.696 24.4395 20.0493 23.2211 19.412 22.0075C18.5873 20.433 17.7298 18.8749 17.1815 17.1739C17.0363 16.7303 16.9121 16.2836 16.809 15.8337C14.5115 17.4693 13.5343 20.4021 14.3917 23.0889C15.2491 25.7756 17.7446 27.6002 20.5648 27.6025Z" fill="#EC210D"/>
<path d="M20.5649 14.6223C20.2836 14.6233 20.0027 14.642 19.7238 14.6786C19.7915 15.0553 19.8815 15.4277 19.9932 15.7938C20.4337 17.284 21.1647 18.6476 21.8676 20.0112C22.6009 21.417 23.3507 22.8227 24.0114 24.2707C24.2877 24.8645 24.5226 25.4767 24.7143 26.1029C26.8221 24.3576 27.6076 21.4769 26.6774 18.9032C25.7472 16.3296 23.3015 14.6167 20.5649 14.6223Z" fill="#EC210D"/>
</g>
<defs>
<clipPath id="clip0_103_112">
<rect width="32" height="32" fill="white" transform="translate(5 5)"/>
</clipPath>
</defs>
</svg>
