<svg width="534" height="534" viewBox="0 0 534 534" fill="none" xmlns="http://www.w3.org/2000/svg">
<path d="M533.667 267C533.667 119.724 414.276 0.333252 267 0.333252C119.724 0.333252 0.333374 119.724 0.333374 267C0.333374 400.101 97.8494 510.422 225.333 530.427V344.083H157.625V267H225.333V208.25C225.333 141.416 265.145 104.5 326.057 104.5C355.233 104.5 385.75 109.708 385.75 109.708V175.333H352.124C318.998 175.333 308.667 195.889 308.667 216.978V267H382.625L370.802 344.083H308.667V530.427C436.151 510.422 533.667 400.101 533.667 267Z" fill="#1877F2"/>
<path d="M370.802 344.084L382.625 267H308.667V216.978C308.667 195.889 318.997 175.333 352.124 175.333H385.75V109.708C385.75 109.708 355.233 104.5 326.057 104.5C265.145 104.5 225.333 141.417 225.333 208.25V267H157.625V344.084H225.333V530.427C239.117 532.587 253.048 533.67 267 533.667C281.175 533.667 295.09 532.557 308.667 530.427V344.084H370.802Z" fill="white"/>
</svg>
