<svg width="128" height="128" viewBox="0 0 128 128" fill="none" xmlns="http://www.w3.org/2000/svg">
<circle cx="64" cy="64" r="64" fill="white"/>
<path d="M32.5239 32.4643L16.7025 48.1071C13.2144 51.5952 13.2144 57.2619 16.7025 60.75L21.1073 65.1547L61.5358 29.8571H38.8454C36.4763 29.8571 34.2025 30.7976 32.5239 32.4643Z" fill="url(#paint0_linear_27_9)"/>
<path d="M56.3334 29.8571L21.1072 65.1547L31.8215 75.869L85.0357 29.8571H56.3334Z" fill="url(#paint1_linear_27_9)"/>
<path d="M77.8453 29.8571L31.8215 75.869L42.5358 86.5833L100.274 37.5476L95.6073 32.8928C93.7382 30.9405 91.143 29.8333 88.4406 29.8333H77.8453V29.8571Z" fill="url(#paint2_linear_27_9)"/>
<path d="M95.9285 33.2024L42.5356 86.5833L53.2618 97.3095L109.226 46.5119L95.9285 33.2024Z" fill="url(#paint3_linear_27_9)"/>
<path d="M57.4286 101.476L53.262 97.3095L106.75 44.0357L111.167 48.4524C114.655 51.9405 114.964 57.2619 111.476 60.75L70.5477 101.488C66.9167 105.107 61.0477 105.095 57.4286 101.476Z" fill="url(#paint4_linear_27_9)"/>
<defs>
<linearGradient id="paint0_linear_27_9" x1="13.7706" y1="64.3307" x2="38.0314" y2="40.0699" gradientUnits="userSpaceOnUse">
<stop stop-color="#C774FF"/>
<stop offset="1" stop-color="#D677DB"/>
</linearGradient>
<linearGradient id="paint1_linear_27_9" x1="36.4868" y1="64.2026" x2="55.2674" y2="45.2952" gradientUnits="userSpaceOnUse">
<stop stop-color="#EF7A9D"/>
<stop offset="1" stop-color="#D677DB"/>
</linearGradient>
<linearGradient id="paint2_linear_27_9" x1="57.8014" y1="63.3937" x2="74.9145" y2="47.1319" gradientUnits="userSpaceOnUse">
<stop stop-color="#EF7A9D"/>
<stop offset="1" stop-color="#FF936D"/>
</linearGradient>
<linearGradient id="paint3_linear_27_9" x1="53.7502" y1="86.8206" x2="94.0209" y2="48.0869" gradientUnits="userSpaceOnUse">
<stop stop-color="#FFC846"/>
<stop offset="1" stop-color="#FF936D"/>
</linearGradient>
<linearGradient id="paint4_linear_27_9" x1="66.8221" y1="94.4005" x2="105.968" y2="55.5919" gradientUnits="userSpaceOnUse">
<stop stop-color="#FFC846"/>
<stop offset="1" stop-color="#FFC846"/>
</linearGradient>
</defs>
</svg>
