<svg width="51" height="51" viewBox="0 0 51 51" fill="none" xmlns="http://www.w3.org/2000/svg">
<circle cx="25.5" cy="25.5" r="25.5" fill="white"/>
<path d="M26.9903 9.90848C27.1529 10.8783 27.3704 11.8329 27.6186 12.7897C27.6471 12.9052 27.6779 13.0207 27.7065 13.1362C27.8668 13.7291 28.0425 14.3371 28.2315 14.9321C28.254 15.0073 28.2834 15.0802 28.3193 15.1501C28.4072 15.371 28.5247 15.5792 28.6686 15.769C28.684 15.7843 28.684 15.7974 28.6994 15.7974C28.9224 16.087 29.1936 16.3368 29.5011 16.5362H29.5165L29.5605 16.5645L29.589 16.5798L31.2827 17.5496L31.2958 17.5649L31.3398 17.5932L31.3551 17.6085L31.4123 17.6368L31.4276 17.6521L31.4716 17.6651C31.5091 17.6841 31.5451 17.706 31.5792 17.7305L31.6671 17.7741C31.711 17.7872 31.7396 17.8024 31.7835 17.8177C31.8165 17.8316 31.8512 17.8411 31.8867 17.846L31.9878 17.8744L32.1042 17.9049L32.2206 17.9332L32.2646 17.9485C32.6281 18.0157 33.0014 18.0105 33.3629 17.9332C33.989 17.8024 34.6172 17.6433 35.2301 17.4842C35.3485 17.4571 35.4651 17.4229 35.5794 17.3818C37.1366 16.9535 38.663 16.422 40.1485 15.7908C40.4846 15.6448 40.8338 15.5009 41.1699 15.3418C42.075 14.9205 42.9536 14.4715 43.8059 13.995C43.1351 12.9369 42.3729 11.9386 41.528 11.0113L41.5148 10.9982L41.4994 10.983V10.9742L41.4841 10.9612L41.4555 10.9176L41.4401 10.9023C41.3523 10.8151 41.2666 10.728 41.1787 10.656C40.8375 10.3686 40.4325 10.1655 39.9969 10.0632C39.561 9.95691 39.1062 9.95169 38.6679 10.048H38.6393L38.4636 10.0916L38.4351 10.1068C38.3911 10.1199 38.3318 10.1352 38.2879 10.1504L38.0265 10.2659L37.9232 10.3095C37.0446 10.6866 36.1659 11.0178 35.2543 11.3077C34.6699 11.4973 34.0702 11.6695 33.4727 11.8286C33.297 11.2358 33.1506 10.6422 33.0334 10.048V10.0196C33.018 9.97605 33.018 9.93246 33.0049 9.88887C32.8291 9.01709 32.6819 8.14531 32.5809 7.25392C32.5655 7.12315 32.5523 6.99456 32.537 6.86379C32.4983 6.60358 32.4198 6.35075 32.3041 6.11406C32.1131 5.7109 31.8339 5.35502 31.4869 5.07229C31.1418 4.79364 30.7379 4.59551 30.3051 4.49255C30.114 4.44897 29.9251 4.40538 29.7494 4.37705C28.6621 4.16471 27.5596 4.03863 26.4521 4C26.4653 5.23139 26.54 6.4606 26.6718 7.69199C26.7729 8.44607 26.8739 9.16965 26.9903 9.90848Z" fill="#4673FA"/>
<path d="M24.8465 4.01465C23.5497 4.062 22.26 4.22687 20.9935 4.5072C20.43 4.6364 19.9175 4.92792 19.5204 5.34515C19.1233 5.76237 18.8594 6.2867 18.7617 6.85229C18.7463 6.95254 18.7463 7.03972 18.7309 7.14216C18.7309 7.18575 18.7177 7.22933 18.7177 7.25767C18.7024 7.38843 18.687 7.51702 18.6738 7.64779C18.5706 8.40188 18.4541 9.15379 18.2938 9.89262C18.2767 9.94403 18.2671 9.99761 18.2652 10.0517C18.1334 10.6445 17.9884 11.2526 17.8259 11.8476C17.2284 11.6885 16.6309 11.5141 16.0466 11.3267L15.9301 11.2831C15.3173 11.0804 14.7044 10.8625 14.1047 10.6162L14.0322 10.5879C13.9425 10.5553 13.8552 10.5167 13.7708 10.4724C13.639 10.4135 13.5072 10.3699 13.3754 10.3133C13.2561 10.2658 13.1395 10.212 13.0261 10.152C12.9938 10.1362 12.9588 10.1266 12.9229 10.1236L12.8504 10.1019C12.8084 10.0852 12.7638 10.0756 12.7186 10.0735L12.6615 10.0583C12.6022 10.043 12.5582 10.043 12.5011 10.0299H12.4682C12.0588 9.97291 11.6421 9.99736 11.2424 10.1019C10.842 10.2154 10.4686 10.4074 10.1441 10.6663C10.0526 10.7438 9.96539 10.826 9.88268 10.9126L9.8673 10.9279L9.85192 10.9409L9.83215 10.9736L9.8036 11.0172C8.95843 11.9409 8.19553 12.9356 7.52344 13.99C8.38454 14.4666 9.26321 14.9155 10.1595 15.3369C10.4955 15.496 10.8316 15.6398 11.1809 15.7858C12.662 16.4146 14.1832 16.9461 15.7346 17.3768C15.8528 17.405 15.9694 17.4391 16.0839 17.4793L16.2443 17.5229C16.8132 17.6667 17.3844 17.8127 17.9533 17.9282C18.3156 17.9981 18.6875 18.0032 19.0516 17.9435C19.0802 17.9435 19.1087 17.9282 19.1395 17.9282L19.212 17.913L19.357 17.8694L19.4448 17.8411L19.5613 17.7975L19.6799 17.7539L19.7656 17.7103C19.8095 17.6972 19.8534 17.6667 19.8974 17.6536L19.9259 17.6384L19.9413 17.6231L19.9852 17.5948H20.0006L20.0731 17.5512L21.7228 16.6097L21.8524 16.5378H21.8678C22.1835 16.3433 22.4605 16.0928 22.6849 15.7989C22.888 15.5579 23.0377 15.2772 23.1243 14.9751C23.1682 14.8443 23.199 14.7288 23.2429 14.598C23.3879 14.1055 23.5329 13.6129 23.6647 13.1356C23.6932 13.0201 23.724 12.9046 23.7525 12.7869C24.0008 11.8323 24.2051 10.8625 24.3808 9.9057C24.5104 9.18212 24.6136 8.44547 24.6861 7.72625C24.774 6.49704 24.8465 5.26565 24.8619 4.02119L24.8465 4.01465Z" fill="#4673FA"/>
<path d="M11.4648 32.0166C12.2381 31.3802 13.0025 30.698 13.7274 29.9897C13.8153 29.9025 13.901 29.8306 13.9888 29.7434C14.1492 29.5843 14.3095 29.4252 14.4567 29.2661C14.5292 29.1789 14.6171 29.107 14.6896 29.0198L15.2453 28.4248C15.7266 27.8997 16.0051 27.2227 16.0317 26.5135V26.3108C16.0334 26.248 16.029 26.1853 16.0186 26.1233H16.0317V24.6457H16.0186C16.0186 24.589 16.0317 24.5171 16.0317 24.4582V24.2556C16.0089 23.582 15.7511 22.9373 15.3024 22.4314C15.2739 22.403 15.2585 22.3725 15.23 22.3442L15.1706 22.2875C14.9817 22.0848 14.806 21.8821 14.6171 21.6925L14.5885 21.6642C14.3842 21.4463 14.1799 21.2436 13.9756 21.0409C13.8878 20.9537 13.7999 20.8687 13.712 20.7946C12.9827 20.0863 12.2381 19.4063 11.4495 18.7677C11.0101 18.4059 10.5598 18.0441 10.0941 17.6976C9.20225 17.0307 8.26866 16.3899 7.3197 15.8146C7.10003 15.6707 6.86718 15.5399 6.64971 15.4092C6.57463 15.5407 6.50644 15.676 6.44542 15.8146C5.96312 16.7672 5.5534 17.7544 5.21967 18.7677H5.23285C5.10732 19.1022 5.03829 19.4549 5.02856 19.8117V19.9097C5.04258 20.6655 5.35122 21.3865 5.88966 21.9214L5.93359 21.965C5.97623 22.0003 6.01523 22.0397 6.05001 22.0827C6.10932 22.1241 6.18182 22.1829 6.24113 22.2265C6.30044 22.2701 6.32899 22.2984 6.37073 22.3267C6.94187 22.7474 7.49543 23.1985 8.03582 23.6606C8.21155 23.8197 8.40046 23.9788 8.5762 24.1379L8.7058 24.2534C8.80905 24.3558 8.9101 24.4408 9.01334 24.5432L9.15832 24.674C9.40655 24.9203 9.67015 25.1666 9.91837 25.4128C9.67015 25.6569 9.42192 25.9032 9.15832 26.1495C8.96941 26.3391 8.76511 26.5113 8.5762 26.6856C7.86008 27.322 7.13078 27.917 6.37952 28.4815L6.20598 28.6123C6.15591 28.6552 6.10226 28.6938 6.04562 28.7278C5.72618 28.9906 5.47147 29.3223 5.30095 29.6976C5.12221 30.0706 5.01991 30.4751 5 30.8876V30.9879C5.0013 31.3498 5.07058 31.7082 5.20429 32.0449H5.18891C5.52453 33.0576 5.9342 34.0446 6.41466 34.9981C6.48935 35.1288 6.54646 35.2748 6.61896 35.4034C6.83862 35.2748 7.07147 35.1288 7.29114 34.9981C8.24011 34.4205 9.15832 33.7819 10.0634 33.1172C10.5752 32.7402 11.0123 32.3936 11.4648 32.0166Z" fill="#4673FA"/>
<path d="M46.2553 30.9166V30.8882C46.24 30.1321 45.9316 29.4108 45.3942 28.8744L45.3503 28.8308C45.3063 28.7872 45.2624 28.7589 45.2185 28.7153L45.0295 28.5715L44.8977 28.469C44.3288 28.0506 43.773 27.5973 43.2327 27.1374C43.0591 26.9783 42.868 26.8192 42.6945 26.6601L42.5627 26.5446C42.4594 26.4422 42.3584 26.355 42.2551 26.2547L42.1102 26.124C41.8619 25.8777 41.5983 25.6314 41.3501 25.3851C41.5983 25.1388 41.8466 24.8926 42.1102 24.6463C42.2991 24.4589 42.5034 24.2845 42.6945 24.1123C43.4084 23.4737 44.1377 22.8809 44.8912 22.3165L45.0669 22.1857C45.1162 22.1418 45.1699 22.1031 45.2272 22.0702C45.5462 21.8074 45.8002 21.4756 45.9697 21.1003C46.1487 20.7275 46.2503 20.3229 46.2685 19.9103V19.8101C46.2643 19.4504 46.1997 19.0939 46.0774 18.7552H46.0927C45.7567 17.742 45.3471 16.7543 44.867 15.7999C44.7923 15.6713 44.7352 15.5253 44.6627 15.3945C44.443 15.5253 44.2102 15.6713 43.9905 15.7999C43.0415 16.3796 42.1233 17.016 41.2183 17.683C40.7658 18.0295 40.3133 18.3782 39.8608 18.7552C39.0875 19.3916 38.3231 20.0629 37.5982 20.7821C37.5103 20.8693 37.4224 20.9412 37.3368 21.0284C37.1764 21.1875 37.0138 21.3597 36.8535 21.5188C36.781 21.5929 36.7085 21.6648 36.6338 21.752L36.0649 22.36C35.5841 22.8844 35.3063 23.5609 35.2807 24.2692V24.4719C35.2787 24.5348 35.2839 24.5977 35.296 24.6594H35.2807V26.137H35.296C35.296 26.1937 35.2807 26.2656 35.2807 26.3245V26.5272C35.3031 27.2007 35.561 27.8456 36.01 28.3513C36.0385 28.3797 36.0539 28.4102 36.0825 28.4385L36.1418 28.4974C36.3307 28.7001 36.5064 28.9027 36.6953 29.0902L36.7261 29.1185C36.9304 29.3365 37.1347 29.5391 37.339 29.7418C37.4217 29.8284 37.5089 29.9106 37.6004 29.9881C38.3297 30.6964 39.0743 31.3786 39.8629 32.015C40.3023 32.3768 40.7416 32.7386 41.2205 33.0851C42.1102 33.752 43.0437 34.3928 43.9927 34.9682C44.2124 35.1142 44.4452 35.2428 44.6649 35.3735C44.7374 35.2428 44.8099 35.0989 44.8692 34.9682C45.3497 34.0147 45.7593 33.0277 46.0949 32.015H46.0774C46.2038 31.6815 46.2728 31.3294 46.2817 30.9732C46.2723 30.9672 46.2649 30.9587 46.2603 30.9486C46.2556 30.9386 46.2539 30.9275 46.2553 30.9166Z" fill="#4673FA"/>
<path d="M24.3066 40.8782C24.1462 39.9062 23.9265 38.9516 23.6783 37.997L23.5927 37.6483C23.4301 37.0555 23.2566 36.4474 23.0655 35.8524C23.0428 35.7776 23.0141 35.7048 22.9798 35.6345C22.8923 35.4115 22.774 35.2017 22.6283 35.0112C22.6129 34.9959 22.6129 34.9828 22.5998 34.9828C22.3759 34.6931 22.104 34.4433 21.7958 34.244H21.7826L21.7387 34.2157L21.7101 34.2004L20.0165 33.2305L20.0011 33.2153L19.9571 33.187L19.944 33.1717L19.8847 33.1434L19.8693 33.1281L19.8275 33.115C19.7836 33.0998 19.7397 33.0714 19.6957 33.0562L19.6079 33.0126C19.5639 32.9995 19.5354 32.9843 19.4914 32.969L19.3882 32.9407L19.2872 32.9123L19.1707 32.8818L19.0587 32.8557L19.017 32.8426C18.6537 32.7736 18.2801 32.778 17.9186 32.8557C17.2926 32.9864 16.6643 33.1456 16.0514 33.3047C15.9324 33.332 15.815 33.3662 15.7 33.4071C14.1436 33.8357 12.6179 34.3672 11.1331 34.9981C10.797 35.1441 10.4477 35.2879 10.1116 35.447C9.20657 35.8684 8.3279 36.3174 7.47559 36.7939C8.14591 37.8524 8.90813 38.8507 9.75355 39.7776L9.76673 39.7907L9.7821 39.8059V39.8212L9.79748 39.8343L9.82604 39.8779L9.84141 39.8931C9.92413 39.9797 10.0114 40.0619 10.1028 40.1394C10.444 40.4268 10.849 40.63 11.2846 40.7322C11.7206 40.8385 12.1753 40.8437 12.6136 40.7475H12.6268L12.8025 40.7039L12.8311 40.6886C12.875 40.6755 12.9343 40.6603 12.9783 40.645L13.2397 40.5295L13.3429 40.4859C14.2216 40.1111 15.112 39.7783 16.0141 39.4877C16.5962 39.2981 17.1959 39.126 17.7934 38.9669C17.9538 39.5597 18.1009 40.1677 18.2327 40.7605V40.7911C18.2481 40.8346 18.2481 40.8782 18.2635 40.9218C18.437 41.8045 18.5842 42.6654 18.6853 43.5568C18.7006 43.6854 18.716 43.8161 18.7292 43.9469C18.769 44.2036 18.8483 44.4528 18.9642 44.6857C19.1527 45.088 19.4304 45.4429 19.7765 45.7237C20.1227 46.0045 20.5284 46.204 20.9632 46.3072C21.1521 46.3508 21.3433 46.3944 21.5168 46.4227C22.6045 46.6274 23.7057 46.7534 24.8118 46.7998C24.7972 45.5677 24.7239 44.337 24.5921 43.1078C24.5365 42.3602 24.4411 41.6159 24.3066 40.8782Z" fill="#4673FA"/>
<path d="M40.1839 34.9702C38.7024 34.3417 37.1813 33.8095 35.6301 33.377C35.5118 33.3507 35.3951 33.3172 35.2809 33.2768L35.1205 33.2332C34.5516 33.0872 33.9826 32.9433 33.4137 32.8278C33.0514 32.7582 32.6795 32.7531 32.3153 32.8125C32.2868 32.8125 32.2582 32.8278 32.2275 32.8278L32.155 32.8431L32.01 32.8845L31.9221 32.915L31.8057 32.9586C31.7618 32.9716 31.7332 32.9869 31.6893 33.0022L31.6014 33.0457C31.5575 33.0588 31.5135 33.0871 31.4696 33.1024L31.4411 33.1177L31.4257 33.1307L31.3817 33.1613H31.3598L31.2873 33.2048L29.6398 34.1594L29.508 34.2466H29.4926C29.1734 34.4366 28.8956 34.6877 28.6754 34.9854C28.6601 34.9985 28.6601 35.0138 28.6469 35.0138C28.4582 35.2696 28.31 35.5526 28.2075 35.8529C28.179 35.9553 28.135 36.0708 28.1065 36.1732C27.9615 36.6636 27.8143 37.1431 27.6825 37.6335C27.654 37.7512 27.6254 37.8667 27.5947 37.9822C27.3486 38.9368 27.1443 39.9066 26.9686 40.8634C26.8368 41.587 26.7336 42.3258 26.6611 43.0429C26.5293 44.2735 26.4561 45.5042 26.4414 46.7348C27.7374 46.6864 29.0262 46.5216 30.2922 46.2423C30.8557 46.1127 31.3682 45.8211 31.7656 45.404C32.163 44.9868 32.4275 44.4627 32.5262 43.8972C32.5416 43.797 32.5416 43.7098 32.5548 43.6073C32.5548 43.5638 32.5702 43.5202 32.5702 43.4918C32.5833 43.3611 32.5987 43.2303 32.6141 43.1017C32.7151 42.3476 32.8338 41.5957 32.9919 40.8569C33.0093 40.8055 33.0197 40.7519 33.0227 40.6978C33.1545 40.1028 33.2995 39.4947 33.462 38.9019C34.0595 39.061 34.6592 39.2354 35.2435 39.4228L35.3599 39.4664C35.9728 39.6691 36.5857 39.887 37.1832 40.1333L37.2557 40.1616L37.5193 40.2771C37.6511 40.336 37.7807 40.3796 37.9125 40.4362C38.0443 40.4929 38.1475 40.5387 38.264 40.5953C38.2951 40.6124 38.3295 40.6228 38.365 40.6259L38.4375 40.6542C38.4795 40.6709 38.5241 40.6804 38.5693 40.6825L38.6286 40.6978C38.6857 40.713 38.7297 40.713 38.789 40.7261H38.8285C39.2385 40.7879 39.6571 40.7631 40.0568 40.6535C40.4565 40.5438 40.8284 40.3517 41.1482 40.0897C41.2361 40.0178 41.3239 39.9306 41.4118 39.8434L41.4272 39.8282L41.4404 39.8151L41.4711 39.7846L41.4997 39.741C42.3406 38.8172 43.1019 37.825 43.7754 36.7748C42.9143 36.2953 42.0357 35.8463 41.1394 35.4279C40.8292 35.2588 40.5102 35.106 40.1839 34.9702Z" fill="#4673FA"/>
</svg>
