<svg width="40" height="40" viewBox="0 0 40 40" fill="none" xmlns="http://www.w3.org/2000/svg">
<circle cx="20" cy="20" r="20" fill="white"/>
<path d="M12 10.5C12 8.567 13.5709 7 15.5 7C17.433 7 19 8.57094 19 10.5C19 12.433 17.4291 14 15.5 14C13.567 14 12 12.4291 12 10.5ZM12 20.5C12 18.567 13.5709 17 15.5 17C17.433 17 19 18.5709 19 20.5C19 22.433 17.4291 24 15.5 24C13.567 24 12 22.4291 12 20.5ZM12 29.5C12 27.567 13.5709 26 15.5 26C17.433 26 19 27.5709 19 29.5C19 31.433 17.4291 33 15.5 33C13.567 33 12 31.4291 12 29.5ZM24 11C24 9.89543 24.8877 9 26 9C27.1046 9 28 9.88773 28 11C28 12.1046 27.1123 13 26 13C24.8954 13 24 12.1123 24 11ZM24 21C24 19.8954 24.8877 19 26 19C27.1046 19 28 19.8877 28 21C28 22.1046 27.1123 23 26 23C24.8954 23 24 22.1123 24 21ZM24 30C24 28.8954 24.8877 28 26 28C27.1046 28 28 28.8877 28 30C28 31.1046 27.1123 32 26 32C24.8954 32 24 31.1123 24 30Z" fill="#FF04B4"/>
</svg>
