<svg width="320" height="320" viewBox="0 0 320 320" fill="none" xmlns="http://www.w3.org/2000/svg">
<circle cx="160" cy="160" r="160" fill="white"/>
<path d="M176.451 159.501C176.451 198.437 145.01 230 106.227 230C67.4438 230 36 198.43 36 159.501C36 120.573 67.4414 89 106.227 89C145.012 89 176.451 120.566 176.451 159.501ZM253.489 159.501C253.489 196.151 237.769 225.873 218.376 225.873C198.983 225.873 183.263 196.151 183.263 159.501C183.263 122.852 198.981 93.1298 218.374 93.1298C237.766 93.1298 253.487 122.842 253.487 159.501H253.489ZM285 159.501C285 192.33 279.472 218.96 272.651 218.96C265.829 218.96 260.304 192.337 260.304 159.501C260.304 126.665 265.832 100.043 272.651 100.043C279.469 100.043 285 126.663 285 159.501" fill="black"/>
</svg>
