<svg width="320" height="320" viewBox="0 0 320 320" fill="none" xmlns="http://www.w3.org/2000/svg">
<circle cx="160" cy="160" r="160" fill="#007AFF"/>
<path d="M88 138.613C88 99.0622 120.062 67 159.613 67C199.164 67 231.226 99.0622 231.226 138.613V241.118C231.226 247.128 226.354 252 220.343 252H98.8824C92.8722 252 88 247.128 88 241.118V138.613Z" fill="url(#paint0_linear_84_15)"/>
<path fill-rule="evenodd" clip-rule="evenodd" d="M222.717 243.111V138.822C222.717 103.868 194.465 75.5333 159.613 75.5333C124.761 75.5333 96.5085 103.868 96.5085 138.822V243.111C96.5085 243.308 96.6672 243.467 96.863 243.467H222.363C222.559 243.467 222.717 243.308 222.717 243.111ZM159.613 67C120.062 67 88 99.1556 88 138.822V243.111C88 248.02 91.9681 252 96.863 252H222.363C227.258 252 231.226 248.02 231.226 243.111V138.822C231.226 99.1556 199.164 67 159.613 67Z" fill="white"/>
<defs>
<linearGradient id="paint0_linear_84_15" x1="106.435" y1="77.6666" x2="231.747" y2="276.447" gradientUnits="userSpaceOnUse">
<stop offset="0.265625" stop-color="white"/>
<stop offset="0.734375" stop-color="white"/>
</linearGradient>
</defs>
</svg>
