<svg width="600" height="600" viewBox="0 0 600 600" fill="none" xmlns="http://www.w3.org/2000/svg">
<circle cx="300" cy="300" r="300" fill="white"/>
<path fill-rule="evenodd" clip-rule="evenodd" d="M192.287 311.227C197.716 361.739 237.615 401.638 288.127 407.067C290.159 407.297 291.69 409.023 291.677 411.067V515.347C291.677 516.451 291.225 517.507 290.422 518.264C289.619 519.021 288.539 519.413 287.437 519.347C175.677 513.207 86.1472 423.677 80.0072 311.917C79.941 310.815 80.333 309.735 81.0904 308.932C81.8479 308.129 82.9034 307.677 84.0072 307.677H188.317C190.35 307.68 192.058 309.207 192.287 311.227Z" fill="#E60099"/>
<path fill-rule="evenodd" clip-rule="evenodd" d="M411.037 307.677H515.347C516.451 307.677 517.507 308.129 518.264 308.932C519.021 309.735 519.413 310.815 519.347 311.917C513.207 423.677 423.677 513.207 311.917 519.347C310.815 519.413 309.735 519.021 308.932 518.264C308.129 517.507 307.677 516.451 307.677 515.347V411.037C307.664 408.993 309.195 407.267 311.227 407.037C361.739 401.608 401.638 361.709 407.067 311.197C407.31 309.189 409.014 307.677 411.037 307.677Z" fill="#4931F3"/>
<path fill-rule="evenodd" clip-rule="evenodd" d="M291.677 84.0072V188.317C291.69 190.362 290.159 192.087 288.127 192.317C237.615 197.746 197.716 237.645 192.287 288.157C192.057 290.189 190.332 291.72 188.287 291.707H84.0072C82.9034 291.707 81.8479 291.255 81.0904 290.452C80.333 289.649 79.941 288.569 80.0072 287.467C86.1472 175.677 175.677 86.1472 287.437 80.0072C288.539 79.941 289.619 80.333 290.422 81.0904C291.225 81.8479 291.677 82.9034 291.677 84.0072Z" fill="#0CD2D2"/>
<path d="M299.677 343.68C323.978 343.68 343.677 323.98 343.677 299.68C343.677 275.379 323.978 255.68 299.677 255.68C275.377 255.68 255.677 275.379 255.677 299.68C255.677 323.98 275.377 343.68 299.677 343.68Z" fill="#E60099"/>
<path fill-rule="evenodd" clip-rule="evenodd" d="M331.677 179.77C321.952 179.794 313.173 173.946 309.448 164.962C305.723 155.979 307.788 145.635 314.677 138.77L350.387 103.05C356.452 96.9765 365.296 94.5997 373.588 96.8151C381.88 99.0304 388.36 105.501 390.588 113.79C392.815 122.079 390.452 130.926 384.387 137L348.677 172.77C344.169 177.275 338.05 179.794 331.677 179.77Z" fill="#4931F3"/>
<path fill-rule="evenodd" clip-rule="evenodd" d="M387.677 235.77C377.952 235.794 369.173 229.946 365.448 220.962C361.723 211.979 363.788 201.635 370.677 194.77L446.677 118.77C456.044 109.381 471.248 109.363 480.637 118.73C490.026 128.097 490.044 143.301 480.677 152.69L404.677 228.77C400.169 233.275 394.05 235.795 387.677 235.77Z" fill="#E60099"/>
<path fill-rule="evenodd" clip-rule="evenodd" d="M443.677 291.77C433.952 291.794 425.173 285.946 421.448 276.962C417.723 267.979 419.788 257.635 426.677 250.77L474.677 202.77C484.066 193.381 499.288 193.381 508.677 202.77C518.066 212.159 518.066 227.381 508.677 236.77L460.677 284.77C456.169 289.275 450.05 291.794 443.677 291.77Z" fill="#0CD2D2"/>
</svg>
