<svg width="144" height="144" viewBox="0 0 144 144" fill="none" xmlns="http://www.w3.org/2000/svg">
<rect width="144" height="144" fill="#E9F1FF"/>
<path d="M71.6667 52.3333C74.608 52.3333 77 54.7253 77 57.6666H98.3333C98.3333 42.9386 86.3947 30.9999 71.6667 30.9999C56.94 30.9999 45 42.9386 45 57.6666C45 72.3946 56.94 84.3333 71.6667 84.3333C74.608 84.3333 77 86.7253 77 89.6666C77 90.6413 76.7173 91.5453 76.2587 92.3333H98.1987C98.2853 91.4559 98.3333 90.5666 98.3333 89.6666C98.3333 74.9386 86.3947 62.9999 71.6667 62.9999C68.7253 62.9999 66.3333 60.6079 66.3333 57.6666C66.3333 54.7253 68.7253 52.3333 71.6667 52.3333" fill="#1450F0"/>
<path d="M66.3333 89.6666H45C45 90.5666 45.048 91.4559 45.1347 92.3333H67.076C66.616 91.5453 66.3333 90.6413 66.3333 89.6666Z" fill="#1450F0"/>
<path d="M46.2246 97.6665H97.1086C97.3819 96.7958 97.6139 95.9065 97.7979 94.9998H45.5353C45.7206 95.9065 45.9513 96.7958 46.2246 97.6665Z" fill="#1450F0"/>
<path d="M48.597 103H94.737C95.2357 102.139 95.6984 101.252 96.0997 100.333H47.2344C47.6357 101.252 48.097 102.139 48.597 103Z" fill="#1450F0"/>
<path d="M52.6387 108.333H90.6947C91.5134 107.5 92.2601 106.601 92.9641 105.667H50.3694C51.0734 106.601 51.8214 107.5 52.6387 108.333Z" fill="#1450F0"/>
<path d="M60.1015 113.667H83.2322C84.7855 112.917 86.2508 112.025 87.6175 111H55.7148C57.0828 112.025 58.5482 112.917 60.1015 113.667Z" fill="#1450F0"/>
</svg>
