<svg width="172" height="172" viewBox="0 0 172 172" fill="none" xmlns="http://www.w3.org/2000/svg">
<path d="M85.9 171.4C133.12 171.4 171.4 133.12 171.4 85.8999C171.4 38.6796 133.12 0.399902 85.9 0.399902C38.6797 0.399902 0.400024 38.6796 0.400024 85.8999C0.400024 133.12 38.6797 171.4 85.9 171.4Z" fill="#FF4500"/>
<path d="M142.9 85.8999C142.9 78.9999 137.3 73.3999 130.4 73.3999C127 73.3999 124 74.6999 121.8 76.8999C113.3 70.7999 101.5 66.8 88.5 66.3L94.2 39.6L112.7 43.5C112.9 48.2 116.8 52 121.6 52C126.5 52 130.5 48 130.5 43.1C130.5 38.2 126.5 34.2 121.6 34.2C118.1 34.2 115.1 36.2 113.7 39.2L93 34.8C92.4 34.7 91.8 34.8 91.3 35.1C90.8 35.4 90.5 35.9 90.3 36.5L84 66.3C70.7 66.7 58.8 70.5999 50.2 76.8999C48 74.7999 44.9 73.3999 41.6 73.3999C34.7 73.3999 29.1 78.9999 29.1 85.8999C29.1 90.9999 32.1 95.3 36.5 97.3C36.3 98.5 36.2 99.8 36.2 101.1C36.2 120.3 58.5 135.8 86.1 135.8C113.7 135.8 136 120.3 136 101.1C136 99.8 135.9 98.5999 135.7 97.3999C139.8 95.3999 142.9 90.9999 142.9 85.8999ZM57.4 94.8C57.4 89.9 61.4 85.8999 66.3 85.8999C71.2 85.8999 75.2 89.9 75.2 94.8C75.2 99.7 71.2 103.7 66.3 103.7C61.4 103.7 57.4 99.7 57.4 94.8ZM107.1 118.3C101 124.4 89.4 124.8 86 124.8C82.6 124.8 70.9 124.3 64.9 118.3C64 117.4 64 115.9 64.9 115C65.8 114.1 67.3 114.1 68.2 115C72 118.8 80.2 120.2 86.1 120.2C92 120.2 100.1 118.8 104 115C104.9 114.1 106.4 114.1 107.3 115C108 116 108 117.4 107.1 118.3ZM105.5 103.7C100.6 103.7 96.6 99.7 96.6 94.8C96.6 89.9 100.6 85.8999 105.5 85.8999C110.4 85.8999 114.4 89.9 114.4 94.8C114.4 99.7 110.4 103.7 105.5 103.7Z" fill="white"/>
</svg>
