<svg width="32" height="32" viewBox="0 0 32 32" fill="none" xmlns="http://www.w3.org/2000/svg">
<circle cx="16" cy="16" r="16" fill="white"/>
<g clip-path="url(#clip0_53_15)">
<path d="M8.99999 6.29993L27.6 18.9999L23 25.7999L4.39999 12.9999L8.99999 6.29993Z" fill="url(#paint0_linear_53_15)"/>
<path d="M27.6 19C26 21.3 20.6 20.4 15.5 16.8C10.3 13.3 7.50002 8.59998 9.00002 6.29998C10.6 3.99998 16 4.89998 21.1 8.49998C26.3 11.9 29.1 16.7 27.6 19Z" fill="url(#paint1_linear_53_15)"/>
<path d="M23 25.7C21.4 28 16 27.1 10.9 23.5C5.80001 19.9 2.90001 15.3 4.50001 12.9C6.10001 10.6 11.5 11.5 16.6 15.1C21.7 18.7 24.5 23.4 23 25.7Z" fill="url(#paint2_linear_53_15)"/>
<path d="M27.6 19L23 25.8C21.4 28.1 16 27.1 10.9 23.6C9.90001 22.9 9.00001 22.2 8.10001 21.4C8.80001 21.3 9.70001 20.9 10.6 19.9C12.2 18.2 13 17.8 13.7 17.9C14.4 17.9 15.2 18.6 16.5 20.3C17.8 22 19.6 22.5 20.7 21.6C20.8 21.5 20.9 21.5 21 21.4C21.9 20.7 22.2 20.4 23.9 17.2C24.3 16.4 25.7 15.1 27.6 15.7C28.1 17 28.1 18.1 27.6 19Z" fill="#0E0F23"/>
<path fill-rule="evenodd" clip-rule="evenodd" d="M26.9 18.6C25.5 20.6 20.6 19.6 15.9 16.3C11.1 13 8.3 8.80003 9.7 6.80003C11.1 4.80003 16 5.80003 20.7 9.10003C25.4 12.4 28.2 16.6 26.9 18.6ZM22.5 15.6C21.8 16.6 19.4 16.1 17 14.5C14.7 12.9 13.3 10.8 14 9.80003C14.7 8.80003 17.1 9.30003 19.5 10.9C21.8 12.5 23.2 14.6 22.5 15.6Z" fill="white"/>
<path d="M8.60001 8.59992C8.60001 8.49992 8.50001 8.39992 8.40001 8.49992C8.30001 8.59992 8.20001 8.59992 8.20001 8.69992C8.30001 8.99992 8.40001 9.19992 8.40001 9.39992C8.40001 9.49992 8.50001 9.59992 8.60001 9.49992C8.70001 9.49992 8.80001 9.39992 8.70001 9.29992C8.70001 9.09992 8.70001 8.89992 8.60001 8.59992Z" fill="white"/>
<path d="M9.10002 10.2C9.10002 10.1 9.00002 10 8.90002 10.1C8.80002 10.2 8.80002 10.2 8.80002 10.3C9.90002 12.8 12.2 15.5 15.2 17.5C15.3 17.6 15.4 17.5 15.5 17.5C15.6 17.4 15.5 17.3 15.5 17.2C12.4 15.2 10.2 12.6 9.10002 10.2Z" fill="white"/>
<path d="M21.2 20C21.1 20 21 20 21 20.1C21 20.2 21 20.3 21.1 20.3C21.4 20.4 21.8 20.5 22.1 20.6C22.2 20.6 22.3 20.6 22.3 20.5C22.3 20.4 22.3 20.3 22.2 20.3C21.9 20.2 21.5 20.1 21.2 20Z" fill="white"/>
<path d="M23 20.4C22.9 20.4 22.8 20.5 22.8 20.6C22.8 20.7 22.9 20.8 23 20.8C23.8 20.9 24.7 21 25.4 20.9C25.5 20.9 25.6 20.8 25.6 20.7C25.6 20.6 25.5 20.5 25.4 20.5C24.6 20.6 23.8 20.5 23 20.4Z" fill="white"/>
</g>
<defs>
<linearGradient id="paint0_linear_53_15" x1="12.6442" y1="4.49423" x2="16.3328" y2="17.1604" gradientUnits="userSpaceOnUse">
<stop stop-color="#03B8FF"/>
<stop offset="1" stop-color="#FA52A0"/>
</linearGradient>
<linearGradient id="paint1_linear_53_15" x1="15.6818" y1="3.60958" x2="19.3705" y2="16.2759" gradientUnits="userSpaceOnUse">
<stop stop-color="#03B8FF"/>
<stop offset="1" stop-color="#FA52A0"/>
</linearGradient>
<linearGradient id="paint2_linear_53_15" x1="9.61601" y1="5.37605" x2="13.3047" y2="18.0424" gradientUnits="userSpaceOnUse">
<stop stop-color="#03B8FF"/>
<stop offset="1" stop-color="#FA52A0"/>
</linearGradient>
<clipPath id="clip0_53_15">
<rect width="24" height="24" fill="white" transform="translate(4 4)"/>
</clipPath>
</defs>
</svg>
