<svg width="320" height="320" viewBox="0 0 320 320" fill="none" xmlns="http://www.w3.org/2000/svg">
<circle cx="160" cy="160" r="160" fill="#8C33F2"/>
<path d="M247.669 81H72.6172L42 136.661L160.143 272.778L278.287 136.661L247.669 81ZM239.615 95.9928L257.548 128.601H225.319L239.615 95.9928ZM224.334 95.2752L211.251 125.129L178.552 95.2752H224.334ZM193.868 128.601H126.418L160.143 97.8069L193.868 128.601ZM141.73 95.2752L109.03 125.129L95.9427 95.2752H141.73ZM80.6669 95.9928L94.9624 128.601H62.7332L80.6669 95.9928ZM66.3108 142.881H101.223L136.848 224.162L66.3108 142.881ZM116.817 142.881H203.474L160.143 241.727L116.817 142.881ZM183.433 224.162L219.058 142.881H253.976L183.433 224.162Z" fill="white"/>
</svg>
