<svg width="360" height="360" viewBox="0 0 360 360" fill="none" xmlns="http://www.w3.org/2000/svg">
<circle cx="180" cy="180" r="180" fill="white"/>
<path d="M277.95 129.29C278.1 131.46 278.1 133.63 278.1 135.82C278.1 202.55 227.3 279.51 134.41 279.51V279.47C106.97 279.51 80.1 271.65 57 256.83C60.99 257.31 65 257.55 69.02 257.56C91.76 257.58 113.85 249.95 131.74 235.9C110.13 235.49 91.18 221.4 84.56 200.83C92.13 202.29 99.93 201.99 107.36 199.96C83.8 195.2 66.85 174.5 66.85 150.46C66.85 150.24 66.85 150.03 66.85 149.82C73.87 153.73 81.73 155.9 89.77 156.14C67.58 141.31 60.74 111.79 74.14 88.71C99.78 120.26 137.61 139.44 178.22 141.47C174.15 123.93 179.71 105.55 192.83 93.22C213.17 74.1 245.16 75.08 264.28 95.41C275.59 93.18 286.43 89.03 296.35 83.15C292.58 94.84 284.69 104.77 274.15 111.08C284.16 109.9 293.94 107.22 303.15 103.13C296.37 113.29 287.83 122.14 277.95 129.29Z" fill="#1D9BF0"/>
</svg>
