<svg width="360" height="360" viewBox="0 0 360 360" fill="none" xmlns="http://www.w3.org/2000/svg">
<path d="M180 360C279.411 360 360 279.411 360 180C360 80.5887 279.411 0 180 0C80.5887 0 0 80.5887 0 180C0 279.411 80.5887 360 180 360Z" fill="#1D9BF0"/>
<path d="M287.95 142.793C288.1 144.963 288.1 147.133 288.1 149.323C288.1 216.053 237.3 293.013 144.41 293.013V292.973C116.97 293.013 90.1 285.153 67 270.333C70.99 270.813 75 271.053 79.02 271.063C101.76 271.083 123.85 263.453 141.74 249.403C120.13 248.993 101.18 234.903 94.56 214.333C102.13 215.793 109.93 215.493 117.36 213.463C93.8 208.703 76.85 188.003 76.85 163.963C76.85 163.743 76.85 163.533 76.85 163.323C83.87 167.233 91.73 169.403 99.77 169.643C77.58 154.813 70.74 125.293 84.14 102.213C109.78 133.763 147.61 152.943 188.22 154.973C184.15 137.433 189.71 119.053 202.83 106.723C223.17 87.6026 255.16 88.5826 274.28 108.913C285.59 106.683 296.43 102.533 306.35 96.6526C302.58 108.343 294.69 118.273 284.15 124.583C294.16 123.403 303.94 120.723 313.15 116.633C306.37 126.793 297.83 135.643 287.95 142.793Z" fill="white"/>
</svg>
