<svg width="560" height="560" viewBox="0 0 560 560" fill="none" xmlns="http://www.w3.org/2000/svg">
<g clip-path="url(#clip0_32_57)">
<circle cx="280" cy="280" r="280" fill="#FF007A"/>
<path d="M199.534 64.226C193.692 63.32 193.445 63.213 196.195 62.791C201.464 61.98 213.905 63.085 222.479 65.123C242.494 69.881 260.707 82.069 280.148 103.714L285.313 109.465L292.701 108.277C323.828 103.275 355.493 107.25 381.978 119.485C389.264 122.851 400.752 129.552 402.187 131.274C402.645 131.822 403.485 135.355 404.053 139.124C406.02 152.164 405.036 162.16 401.047 169.625C398.877 173.688 398.756 174.975 400.215 178.452C401.38 181.227 404.627 183.28 407.843 183.276C414.425 183.267 421.509 172.627 424.791 157.823L426.095 151.943L428.678 154.868C442.846 170.92 453.974 192.811 455.885 208.393L456.383 212.455L454.002 208.762C449.903 202.407 445.785 198.08 440.512 194.591C431.006 188.301 420.955 186.161 394.337 184.758C370.296 183.491 356.69 181.438 343.198 177.038C320.244 169.554 308.672 159.587 281.405 123.812C269.294 107.923 261.808 99.131 254.362 92.051C237.442 75.964 220.816 67.527 199.534 64.226Z" fill="white"/>
<path d="M407.61 99.704C408.215 89.057 409.659 82.033 412.562 75.62C413.711 73.081 414.788 71.003 414.954 71.003C415.12 71.003 414.621 72.877 413.844 75.167C411.733 81.392 411.387 89.905 412.84 99.811C414.686 112.379 415.735 114.192 429.019 127.769C435.25 134.137 442.497 142.168 445.124 145.616L449.901 151.886L445.124 147.405C439.282 141.926 425.847 131.24 422.879 129.712C420.89 128.688 420.594 128.705 419.366 129.927C418.235 131.053 417.997 132.744 417.84 140.741C417.596 153.204 415.897 161.204 411.797 169.203C409.58 173.529 409.23 172.606 411.237 167.723C412.735 164.077 412.887 162.474 412.876 150.408C412.853 126.167 409.975 120.339 393.097 110.355C388.821 107.826 381.776 104.178 377.442 102.249C373.107 100.32 369.664 98.639 369.789 98.514C370.267 98.038 386.727 102.842 393.352 105.39C403.206 109.181 404.833 109.672 406.03 109.215C406.832 108.909 407.22 106.572 407.61 99.704Z" fill="white"/>
<path d="M210.883 141.175C199.022 124.846 191.684 99.809 193.272 81.093L193.764 75.301L196.463 75.794C201.534 76.719 210.275 79.973 214.369 82.459C225.602 89.281 230.465 98.263 235.413 121.328C236.862 128.083 238.763 135.728 239.638 138.317C241.047 142.483 246.369 152.214 250.696 158.534C253.813 163.085 251.743 165.242 244.853 164.62C234.331 163.67 220.078 153.834 210.883 141.175Z" fill="white"/>
<path d="M393.223 262.707C337.793 240.389 318.271 221.017 318.271 188.331C318.271 183.521 318.437 179.585 318.638 179.585C318.84 179.585 320.985 181.173 323.404 183.113C334.644 192.128 347.231 195.979 382.076 201.062C402.58 204.054 414.119 206.47 424.763 210C458.595 221.22 479.527 243.99 484.518 275.004C485.969 284.016 485.118 300.915 482.766 309.822C480.91 316.857 475.245 329.537 473.742 330.023C473.325 330.158 472.917 328.562 472.81 326.389C472.24 314.744 466.355 303.406 456.472 294.913C445.235 285.257 430.137 277.569 393.223 262.707Z" fill="white"/>
<path d="M354.31 271.978C353.615 267.846 352.411 262.568 351.633 260.25L350.219 256.036L352.846 258.985C356.481 263.065 359.354 268.287 361.789 275.241C363.647 280.549 363.856 282.127 363.842 290.753C363.828 299.221 363.596 300.996 361.88 305.773C359.174 313.307 355.816 318.649 350.181 324.383C340.056 334.688 327.038 340.393 308.253 342.76C304.987 343.171 295.47 343.864 287.103 344.299C266.016 345.395 252.138 347.661 239.668 352.04C237.875 352.67 236.274 353.052 236.112 352.89C235.607 352.388 244.098 347.326 251.111 343.948C260.999 339.185 270.842 336.586 292.897 332.913C303.792 331.098 315.043 328.897 317.9 328.021C344.88 319.749 358.748 298.402 354.31 271.978Z" fill="white"/>
<path d="M379.719 317.105C372.355 301.273 370.664 285.988 374.698 271.732C375.13 270.209 375.824 268.962 376.242 268.962C376.659 268.962 378.397 269.902 380.103 271.05C383.497 273.335 390.303 277.182 408.437 287.069C431.065 299.406 443.966 308.959 452.74 319.873C460.423 329.432 465.178 340.318 467.467 353.593C468.762 361.113 468.003 379.206 466.074 386.778C459.99 410.653 445.85 429.406 425.682 440.349C422.727 441.952 420.075 443.269 419.788 443.275C419.501 443.28 420.577 440.543 422.18 437.191C428.965 423.009 429.737 409.214 424.608 393.859C421.467 384.457 415.064 372.985 402.135 353.596C387.103 331.054 383.417 325.054 379.719 317.105Z" fill="white"/>
<path d="M171.519 402.525C192.089 385.157 217.682 372.819 240.996 369.032C251.043 367.399 267.78 368.047 277.084 370.428C291.998 374.245 305.338 382.793 312.276 392.978C319.057 402.932 321.966 411.606 324.995 430.906C326.189 438.519 327.489 446.164 327.882 447.895C330.156 457.897 334.583 465.892 340.067 469.907C348.779 476.283 363.78 476.68 378.536 470.924C381.041 469.947 383.215 469.271 383.368 469.424C383.903 469.955 376.473 474.93 371.23 477.548C364.177 481.071 358.568 482.434 351.115 482.434C337.6 482.434 326.379 475.558 317.016 461.539C315.174 458.78 311.032 450.516 307.813 443.176C297.928 420.628 293.046 413.759 281.568 406.242C271.579 399.701 258.697 398.53 249.006 403.282C236.276 409.523 232.724 425.791 241.842 436.101C245.465 440.198 252.223 443.732 257.749 444.419C268.086 445.705 276.97 437.841 276.97 427.404C276.97 420.627 274.365 416.76 267.808 413.801C258.852 409.76 249.226 414.483 249.272 422.897C249.292 426.484 250.854 428.737 254.45 430.364C256.757 431.408 256.811 431.491 254.929 431.1C246.712 429.396 244.787 419.49 251.394 412.913C259.326 405.018 275.729 408.502 281.362 419.279C283.728 423.805 284.003 432.82 281.94 438.264C277.322 450.448 263.859 456.855 250.201 453.368C240.903 450.994 237.117 448.424 225.906 436.876C206.425 416.809 198.862 412.92 170.777 408.536L165.395 407.696L171.519 402.525Z" fill="white"/>
<path fill-rule="evenodd" clip-rule="evenodd" d="M24.6202 -46.9969C89.678 31.9638 189.977 154.901 194.957 161.784C199.068 167.467 197.521 172.576 190.478 176.58C186.561 178.807 178.508 181.063 174.476 181.063C169.916 181.063 164.779 178.867 161.038 175.318C158.393 172.81 147.721 156.874 123.084 118.646C104.233 89.396 88.457 65.131 88.027 64.725C87.032 63.785 87.049 63.817 121.162 124.854C142.582 163.181 149.813 176.731 149.813 178.543C149.813 182.229 148.808 184.166 144.261 189.238C136.681 197.694 133.293 207.195 130.847 226.859C128.104 248.902 120.394 264.473 99.026 291.122C86.518 306.722 84.471 309.581 81.315 315.869C77.339 323.786 76.246 328.221 75.803 338.219C75.335 348.79 76.247 355.619 79.477 365.726C82.304 374.575 85.255 380.417 92.8 392.104C99.311 402.188 103.061 409.683 103.061 412.614C103.061 414.947 103.506 414.95 113.596 412.672C137.741 407.219 157.348 397.629 168.375 385.877C175.199 378.603 176.801 374.586 176.853 364.618C176.887 358.098 176.658 356.733 174.896 352.982C172.027 346.877 166.804 341.801 155.292 333.932C140.209 323.621 133.767 315.32 131.987 303.904C130.527 294.537 132.221 287.928 140.565 270.44C149.202 252.338 151.342 244.624 152.79 226.378C153.725 214.589 155.02 209.94 158.407 206.209C161.939 202.317 165.119 201 173.861 199.805C188.113 197.858 197.188 194.171 204.648 187.297C211.119 181.334 213.827 175.588 214.243 166.938L214.558 160.382L210.942 156.166C197.846 140.896 15.85 -59 15.044 -59C14.8719 -59 19.1813 -53.5982 24.6202 -46.9969ZM110.412 350.18C113.373 344.937 111.8 338.195 106.847 334.902C102.167 331.79 94.897 333.256 94.897 337.311C94.897 338.548 95.582 339.449 97.124 340.243C99.72 341.579 99.909 343.081 97.866 346.152C95.797 349.262 95.964 351.996 98.337 353.854C102.162 356.849 107.576 355.202 110.412 350.18Z" fill="white"/>
<path fill-rule="evenodd" clip-rule="evenodd" d="M223.552 203.244C216.862 205.299 210.358 212.39 208.344 219.826C207.116 224.362 207.813 232.319 209.653 234.776C212.625 238.745 215.499 239.791 223.282 239.736C238.518 239.63 251.764 233.095 253.304 224.925C254.567 218.229 248.749 208.948 240.736 204.874C236.601 202.772 227.807 201.938 223.552 203.244ZM241.364 217.172C243.714 213.834 242.686 210.225 238.69 207.785C231.08 203.138 219.571 206.983 219.571 214.173C219.571 217.752 225.572 221.656 231.074 221.656C234.735 221.656 239.746 219.473 241.364 217.172Z" fill="white"/>
</g>
<defs>
<clipPath id="clip0_32_57">
<rect width="560" height="560" fill="white"/>
</clipPath>
</defs>
</svg>
