<svg width="28" height="28" viewBox="0 0 28 28" fill="none" xmlns="http://www.w3.org/2000/svg">
<circle cx="14" cy="14" r="14" fill="white"/>
<path d="M13.99 4C8.47 4 4 8.48 4 14C4 19.52 8.47 24 13.99 24C19.52 24 24 19.52 24 14C24 8.48 19.52 4 13.99 4ZM20.92 10H17.97C17.65 8.75 17.19 7.55 16.59 6.44C18.43 7.07 19.96 8.35 20.92 10ZM14 6.04C14.83 7.24 15.48 8.57 15.91 10H12.09C12.52 8.57 13.17 7.24 14 6.04ZM6.26 16C6.1 15.36 6 14.69 6 14C6 13.31 6.1 12.64 6.26 12H9.64C9.56 12.66 9.5 13.32 9.5 14C9.5 14.68 9.56 15.34 9.64 16H6.26ZM7.08 18H10.03C10.35 19.25 10.81 20.45 11.41 21.56C9.57 20.93 8.04 19.66 7.08 18V18ZM10.03 10H7.08C8.04 8.34 9.57 7.07 11.41 6.44C10.81 7.55 10.35 8.75 10.03 10V10ZM14 21.96C13.17 20.76 12.52 19.43 12.09 18H15.91C15.48 19.43 14.83 20.76 14 21.96ZM16.34 16H11.66C11.57 15.34 11.5 14.68 11.5 14C11.5 13.32 11.57 12.65 11.66 12H16.34C16.43 12.65 16.5 13.32 16.5 14C16.5 14.68 16.43 15.34 16.34 16ZM16.59 21.56C17.19 20.45 17.65 19.25 17.97 18H20.92C19.96 19.65 18.43 20.93 16.59 21.56V21.56ZM18.36 16C18.44 15.34 18.5 14.68 18.5 14C18.5 13.32 18.44 12.66 18.36 12H21.74C21.9 12.64 22 13.31 22 14C22 14.69 21.9 15.36 21.74 16H18.36Z" fill="black"/>
</svg>
