<svg width="624" height="624" viewBox="0 0 624 624" fill="none" xmlns="http://www.w3.org/2000/svg">
<circle cx="312" cy="312" r="312" fill="white"/>
<path d="M515.265 156.353C476.038 118.023 422.378 94.4 363.2 94.4C243.023 94.4 145.6 191.823 145.6 312C145.6 432.177 243.023 529.6 363.2 529.6C422.377 529.6 476.038 505.977 515.265 467.647C468.474 528.661 394.831 568 312 568C170.615 568 56 453.385 56 312C56 170.615 170.615 56 312 56C394.831 56 468.474 95.339 515.265 156.353Z" fill="url(#paint0_linear_27_15)"/>
<path d="M200.588 436.518C231.97 467.182 274.898 486.08 322.24 486.08C418.382 486.08 496.32 408.142 496.32 312C496.32 215.858 418.382 137.92 322.24 137.92C274.898 137.92 231.97 156.818 200.588 187.482C238.021 138.671 296.935 107.2 363.2 107.2C476.308 107.2 568 198.892 568 312C568 425.108 476.308 516.8 363.2 516.8C296.935 516.8 238.021 485.329 200.588 436.518Z" fill="url(#paint1_linear_27_15)"/>
<path fill-rule="evenodd" clip-rule="evenodd" d="M465.6 312C465.6 396.831 396.831 465.6 312 465.6C227.169 465.6 158.4 396.831 158.4 312C158.4 227.169 227.169 158.4 312 158.4C396.831 158.4 465.6 227.169 465.6 312ZM414.4 312C414.4 368.554 368.554 414.4 312 414.4C255.446 414.4 209.6 368.554 209.6 312C209.6 255.446 255.446 209.6 312 209.6C368.554 209.6 414.4 255.446 414.4 312Z" fill="url(#paint2_linear_27_15)"/>
<defs>
<linearGradient id="paint0_linear_27_15" x1="56" y1="303.172" x2="568" y2="303.172" gradientUnits="userSpaceOnUse">
<stop stop-color="#00E0FF"/>
<stop offset="1" stop-color="#562EC8"/>
</linearGradient>
<linearGradient id="paint1_linear_27_15" x1="55.9999" y1="303.172" x2="568" y2="303.172" gradientUnits="userSpaceOnUse">
<stop stop-color="#00E0FF"/>
<stop offset="1" stop-color="#562EC8"/>
</linearGradient>
<linearGradient id="paint2_linear_27_15" x1="55.9999" y1="303.172" x2="568" y2="303.172" gradientUnits="userSpaceOnUse">
<stop stop-color="#00E0FF"/>
<stop offset="1" stop-color="#562EC8"/>
</linearGradient>
</defs>
</svg>
